# xmcd
#
# Track frame offsets: 
#        150
#        47895
#        86330
#        105615
#        119380
#        148768
#        178628
#        236616
#        269073
#        303875
#
# Disc length: 4612 seconds
#
# Revision: 0
# Processed by: cddbd v1.5.2PL0 Copyright (c) Steve Scherf et al.
# Submitted via: ExactAudioCopy v0.99pb4
#
DISCID=8912020a
DTITLE=Gary Moore - Guitar Mindtrip
DYEAR=2010
DGENRE=Blues
TTITLE0=I Love You More Than You'll Ever Know
TTITLE1=Driftin'
TTITLE2=Merry-Go-Round
TTITLE3=Supernatural
TTITLE4=Love That Burns
TTITLE5=Where Did We Go Wrong
TTITLE6=Ball And Chain
TTITLE7=Looking For Somebody
TTITLE8=As The Years Go Passing By
TTITLE9=Drowning In Tears
EXTD=
EXTT0=
EXTT1=
EXTT2=
EXTT3=
EXTT4=
EXTT5=
EXTT6=
EXTT7=
EXTT8=
EXTT9=
PLAYORDER=
